HIERARCHY
ROOT Hips
{
	OFFSET 0.000000 0.000000 0.000000 
	CHANNELS 6 Xposition Yposition Zposition Yrotation Zrotation Xrotation 
	JOINT Lumbar
	{
		OFFSET 0.000000 0.000000 0.000000 
		CHANNELS 3 Zrotation Xrotation Yrotation
		JOINT Neck
		{
			OFFSET 0.000000 0.445665 0.000000 
			CHANNELS 3 Zrotation Xrotation Yrotation
			End Site
			{
				OFFSET 0.000000 0.227535 0.000000 
			}
		}
		JOINT RightShoulder
		{
			OFFSET 0.019635 0.377685 0.194865 
			CHANNELS 3 Zrotation Xrotation Yrotation
			JOINT RightElbow
			{
				OFFSET 0.000000 -0.243375 0.000000 
				CHANNELS 2 Zrotation Yrotation
				JOINT RightWrist
				{
					OFFSET 0.000000 -0.264825 0.000000 
					CHANNELS 2 Zrotation Xrotation
					End Site
					{
						OFFSET 0.006600 -0.176220 0.000990 
					}
				}
			}
		}
		JOINT LeftShoulder
		{
			OFFSET 0.019635 0.377685 -0.194865 
			CHANNELS 3 Zrotation Xrotation Yrotation
			JOINT LeftElbow
			{
				OFFSET 0.000000 -0.243375 0.000000 
				CHANNELS 2 Zrotation Yrotation
				JOINT LeftWrist
				{
					OFFSET 0.000000 -0.264825 0.000000 
					CHANNELS 2 Zrotation Xrotation
					End Site
					{
						OFFSET 0.006600 -0.176220 -0.000990 
					}
				}
			}
		}
	}
	JOINT RightHip
	{
		OFFSET 0.052140 -0.069960 0.075570 
		CHANNELS 3 Zrotation Xrotation Yrotation
		JOINT RightKnee
		{
			OFFSET 0.000000 -0.402270 0.000000 
			CHANNELS 1 Zrotation
			JOINT RightAnkle
			{
				OFFSET 0.000000 -0.404085 0.000000 
				CHANNELS 3 Zrotation Xrotation Yrotation
				End Site
				{
					OFFSET 0.204105 -0.089430 0.008415 
				}
			}
		}
	}
	JOINT LeftHip
	{
		OFFSET 0.052140 -0.069960 -0.075570 
		CHANNELS 3 Zrotation Xrotation Yrotation
		JOINT LeftKnee
		{
			OFFSET 0.000000 -0.402270 0.000000 
			CHANNELS 1 Zrotation
			JOINT LeftAnkle
			{
				OFFSET 0.000000 -0.404085 0.000000 
				CHANNELS 3 Zrotation Xrotation Yrotation
				End Site
				{
					OFFSET 0.204105 -0.089430 -0.008415 
				}
			}
		}
	}
}
MOTION
Frames: 19
Frame Time: 0.02
-0.03593 0.00196 0.00257 -150.7615 -39.45489 -1.65905 46.13646 1.80701 14.0643 13.10761 6.41398 -2.11974 79.89552 -14.68661 55.63332 5.78701 95.4258 4.23941 2.91467 -61.01176 16.76813 -55.32459 102.61471 -89.9394 30.6583 1.32859 40.26544 0.05232 -12.29833 -19.08688 -6.32203 -1.71438 -3.05822 43.22474 4.64327 8.63035 -24.1652 -6.57276 1.33374 2.89998
-0.03615 0.00198 0.00266 -150.88314 -39.41616 -1.67867 46.12307 1.80467 13.84854 12.93176 6.49478 -2.11974 80.62438 -14.37156 55.63332 5.78685 95.26386 4.00596 2.92448 -61.04036 16.54572 -55.31519 102.47545 -89.68375 30.22308 1.46557 40.20391 0.07118 -12.2132 -19.07382 -6.32204 -1.71101 -3.05697 43.1518 4.63294 8.56763 -24.16389 -6.56591 1.35327 2.90874
-0.03638 0.00198 0.00272 -150.99006 -39.35516 -1.69914 46.09245 1.79638 13.59194 12.72776 6.57235 -2.11974 81.19682 -14.03107 55.63318 5.78718 95.19319 3.77332 2.95414 -61.08562 16.29015 -55.30465 102.30336 -89.61897 29.75686 1.69467 40.11513 0.09298 -12.13864 -19.06041 -6.32188 -1.70522 -3.05498 43.05485 4.62716 8.50518 -24.16369 -6.55815 1.37608 2.91858
-0.03661 0.00199 0.0028 -151.10324 -39.30525 -1.71966 46.071 1.79038 13.36195 12.54258 6.6483 -2.11974 81.79082 -13.71551 55.6333 5.7869 95.04455 3.55423 2.96401 -61.12973 16.05459 -55.29689 102.1502 -89.46165 29.30264 1.88041 40.03936 0.1134 -12.06363 -19.04776 -6.32176 -1.70031 -3.05319 42.96969 4.61741 8.4306 -24.16315 -6.55056 1.39883 2.92857
-0.03679 0.00201 0.00287 -151.21933 -39.25224 -1.73845 46.04451 1.78604 13.09788 12.33188 6.73826 -2.11974 82.60923 -13.34122 55.6332 5.78647 95.03823 3.27769 3.01846 -61.14883 15.7967 -55.27997 101.98212 -89.3257 28.85236 2.07083 39.96228 0.13419 -11.96931 -19.03249 -6.32183 -1.69649 -3.05204 42.88209 4.61519 8.40442 -24.1619 -6.54399 1.41589 2.93602
-0.03709 0.00199 0.00295 -151.32479 -39.20003 -1.76092 46.02393 1.77697 12.89454 12.16763 6.79722 -2.11974 82.91259 -13.08535 55.63275 5.78869 94.76716 3.118 2.98385 -61.22224 15.57832 -55.28147 101.83588 -89.18776 28.39108 2.2731 39.88089 0.15474 -11.9182 -19.02262 -6.32146 -1.68978 -3.04936 42.79338 4.59901 8.28059 -24.16239 -6.53513 1.44512 2.9488
-0.03773 0.00188 0.00305 -151.41246 -39.15533 -1.79444 46.0272 1.75505 12.87645 12.13875 6.77972 -2.11974 81.88536 -13.1496 55.63426 5.78415 93.67333 3.3128 2.71584 -61.45325 15.4743 -55.33725 101.76674 -89.04861 27.87473 2.49752 39.79508 0.17509 -11.9821 -19.02779 -6.31979 -1.67552 -3.04257 42.70768 4.53769 7.85938 -24.16761 -6.51944 1.51138 2.97802
-0.03849 0.00174 0.00316 -151.4884 -39.11211 -1.83146 46.03636 1.72888 12.91971 12.15732 6.72953 -2.11974 80.33191 -13.33799 55.63233 5.78841 92.32268 3.62013 2.35603 -61.73605 15.41239 -55.41104 101.71927 -88.89361 27.35531 2.72947 39.70561 0.19489 -12.08943 -19.03842 -6.3177 -1.65845 -3.03428 42.62152 4.46317 7.34485 -24.17449 -6.50159 1.58902 3.01222
-0.0392 0.00161 0.00327 -151.5644 -39.06814 -1.8661 46.0406 1.7054 12.92992 12.15434 6.68886 -2.11974 78.98531 -13.47637 55.63331 5.79329 91.13708 3.85427 2.02539 -61.98726 15.33257 -55.47452 101.65552 -88.71202 26.85788 2.94968 39.61703 0.21411 -12.17826 -19.04649 -6.31585 -1.64275 -3.02673 42.53518 4.39829 6.89136 -24.18053 -6.48515 1.65865 3.04284
-0.03991 0.00148 0.00336 -151.66209 -39.02364 -1.90398 46.0537 1.67823 12.96007 12.15127 6.67075 -2.11974 77.77745 -13.5806 55.63905 5.76413 89.75441 4.1786 1.74254 -62.27289 15.24429 -55.54691 101.61632 -88.6748 26.2697 3.20552 39.53054 0.23681 -12.26271 -19.0548 -6.31375 -1.62653 -3.0189 42.44942 4.31824 6.35992 -24.18706 -6.46684 1.74028 3.079
-0.04064 0.00134 0.0035 -151.71206 -38.98102 -1.93611 46.05002 1.65816 12.96433 12.15882 6.59777 -2.11974 76.14803 -13.79354 55.62094 5.82619 88.71515 4.34546 1.34542 -62.49914 15.18671 -55.60507 101.53339 -88.33668 25.87356 3.39109 39.43949 0.25226 -12.36584 -19.064 -6.3121 -1.61082 -3.01133 42.36294 4.26652 5.96782 -24.19285 -6.45196 1.79972 3.10486
-0.04137 0.00113 0.00378 -151.63282 -38.94208 -1.95 45.99805 1.65559 12.87762 12.19525 6.38297 -2.11974 73.56676 -14.20824 55.65044 5.97827 88.7297 4.01909 0.59065 -62.54669 15.1825 -55.61911 101.30924 -87.11711 25.97909 3.35012 39.33429 0.24613 -12.51523 -19.07366 -6.31175 -1.59651 -3.00446 42.2725 4.29699 5.99078 -24.19692 -6.4469 1.79383 3.10036
-0.0421 0.00091 0.00412 -151.50611 -38.90538 -1.95826 45.92911 1.66082 12.76363 12.23914 6.11402 -2.11974 70.56559 -14.73952 55.63536 6.249 89.09078 3.53649 -0.26523 -62.53297 15.21283 -55.61829 101.04361 -85.60306 26.28279 3.2424 39.22536 0.23299 -12.68089 -19.08413 -6.3119 -1.58295 -2.99797 42.18198 4.35628 6.1559 -24.20004 -6.44542 1.76544 3.08542
-0.04282 0.0007 0.00443 -151.40138 -38.8684 -1.97012 45.86842 1.66469 12.66549 12.27204 5.8685 -2.11974 67.70136 -15.26394 55.56638 6.5735 89.26415 3.14516 -1.03104 -62.54857 15.24006 -55.62457 100.80673 -84.26042 26.51624 3.18623 39.11972 0.22415 -12.83556 -19.0947 -6.31185 -1.56954 -2.99154 42.09279 4.40185 6.25094 -24.20305 -6.44244 1.74818 3.07571
-0.04358 0.00046 0.00474 -151.29442 -38.82802 -1.97775 45.80587 1.65963 12.55553 12.33733 5.62591 -2.11974 65.04195 -15.60367 55.80895 6.45454 89.55426 2.67064 -1.98127 -62.55981 15.21141 -55.63004 100.52767 -82.76461 26.66939 3.04513 39.00664 0.21063 -13.00691 -19.1036 -6.31162 -1.55399 -2.98408 41.99756 4.44954 6.36546 -24.20832 -6.43884 1.72754 3.06417
-0.04426 0.00029 0.00506 -151.1811 -38.79567 -1.99277 45.74281 1.67452 12.46212 12.33799 5.36592 -2.11974 61.86839 -16.347 55.39386 7.27364 89.68934 2.33279 -2.57651 -62.56482 15.31199 -55.6334 100.32773 -81.51066 27.03255 3.05957 38.90892 0.20515 -13.14683 -19.11595 -6.31193 -1.54306 -2.97887 41.91561 4.49991 6.47483 -24.20876 -6.43743 1.70838 3.05386
-0.04473 0.00033 0.00536 -151.06092 -38.78135 -2.02965 45.68486 1.74733 12.42696 12.14397 5.06092 -2.11974 57.33774 -18.23775 53.16113 10.77144 89.29127 2.39226 -2.11123 -62.56798 15.71849 -55.6346 100.34265 -81.06277 27.95985 3.56717 38.84889 0.22383 -13.19572 -19.13876 -6.31329 -1.54515 -2.97992 41.86434 4.54996 6.53184 -24.1951 -6.44109 1.69933 3.04982
-0.04511 0.00044 0.00565 -150.93625 -38.77576 -2.07402 45.62642 1.83913 12.40757 11.88736 4.74192 -2.11974 52.31656 -20.5187 50.27297 15.18683 88.73034 2.5969 -1.29462 -62.56658 16.26284 -55.63391 100.43987 -80.85813 29.08229 4.22569 38.80562 0.25069 -13.21229 -19.16474 -6.31522 -1.5518 -2.98323 41.82769 4.60182 6.57984 -24.1768 -6.44687 1.69239 3.04732
-0.04552 0.00051 0.00594 -150.81426 -38.76843 -2.11501 45.56673 1.91908 12.37733 11.66828 4.43676 -2.11974 47.54609 -22.57992 47.68988 19.10559 88.25852 2.74729 -0.67545 -62.56681 16.77011 -55.6342 100.50989 -80.49625 30.09809 4.7828 38.75823 0.27373 -13.24352 -19.18849 -6.31709 -1.55609 -2.98544 41.78816 4.65349 6.63464 -24.16125 -6.45179 1.68407 3.0439
